<?xml version="1.0" encoding="UTF-8" standalone="no"?>
<svg width="40px" height="29px" viewBox="0 0 40 29" version="1.1" xmlns="http://www.w3.org/2000/svg" xmlns:xlink="http://www.w3.org/1999/xlink" xmlns:sketch="http://www.bohemiancoding.com/sketch/ns">
    <!-- Generator: Sketch 3.3.2 (12043) - http://www.bohemiancoding.com/sketch -->
    <title>Fill 193</title>
    <desc>Created with Sketch.</desc>
    <defs></defs>
    <g id="Welcome" stroke="none" stroke-width="1" fill="none" fill-rule="evenodd" sketch:type="MSPage">
        <g id="Desktop-HD" sketch:type="MSArtboardGroup" transform="translate(-620.000000, -788.000000)" fill="#F7F7F7">
            <path d="M658.571429,812.285714 L632.857143,812.285714 C632.067143,812.285714 631.428571,812.925714 631.428571,813.714286 C631.428571,814.504286 632.067143,815.142857 632.857143,815.142857 L658.571429,815.142857 C659.361429,815.142857 660,814.504286 660,813.714286 C660,812.925714 659.361429,812.285714 658.571429,812.285714 L658.571429,812.285714 Z M622.857143,788 C621.28,788 620,789.28 620,790.857143 C620,792.434286 621.28,793.714286 622.857143,793.714286 C624.434286,793.714286 625.714286,792.434286 625.714286,790.857143 C625.714286,789.28 624.434286,788 622.857143,788 L622.857143,788 Z M632.857143,792.285714 L658.571429,792.285714 C659.361429,792.285714 660,791.647143 660,790.857143 C660,790.067143 659.361429,789.428571 658.571429,789.428571 L632.857143,789.428571 C632.067143,789.428571 631.428571,790.067143 631.428571,790.857143 C631.428571,791.647143 632.067143,792.285714 632.857143,792.285714 L632.857143,792.285714 Z M658.571429,800.857143 L632.857143,800.857143 C632.067143,800.857143 631.428571,801.497143 631.428571,802.285714 C631.428571,803.075714 632.067143,803.714286 632.857143,803.714286 L658.571429,803.714286 C659.361429,803.714286 660,803.075714 660,802.285714 C660,801.497143 659.361429,800.857143 658.571429,800.857143 L658.571429,800.857143 Z M622.857143,799.428571 C621.28,799.428571 620,800.708571 620,802.285714 C620,803.862857 621.28,805.142857 622.857143,805.142857 C624.434286,805.142857 625.714286,803.862857 625.714286,802.285714 C625.714286,800.708571 624.434286,799.428571 622.857143,799.428571 L622.857143,799.428571 Z M622.857143,810.857143 C621.28,810.857143 620,812.137143 620,813.714286 C620,815.291429 621.28,816.571429 622.857143,816.571429 C624.434286,816.571429 625.714286,815.291429 625.714286,813.714286 C625.714286,812.137143 624.434286,810.857143 622.857143,810.857143 L622.857143,810.857143 Z" id="Fill-193" sketch:type="MSShapeGroup"></path>
        </g>
    </g>
</svg>